<?xml version="1.0" standalone="no"?>
<svg viewBox="0 0 200 200" xmlns="http://www.w3.org/2000/svg">
  <path fill="#93A25A" d="M41.8,-67.9C55.2,-64.7,67.8,-55.5,76.1,-43.2C84.3,-30.9,88.4,-15.5,87.9,-0.3C87.4,14.9,82.5,29.8,74,41.9C65.6,54,53.7,63.2,40.8,70.6C27.9,78,13.9,83.6,-0.8,85C-15.5,86.3,-31,83.4,-40.2,73.9C-49.5,64.3,-52.4,48.2,-58.5,34.7C-64.5,21.3,-73.6,10.7,-77.6,-2.3C-81.7,-15.4,-80.7,-30.7,-74.1,-43C-67.4,-55.3,-55,-64.5,-41.7,-67.8C-28.4,-71,-14.2,-68.4,0,-68.4C14.2,-68.4,28.4,-71.1,41.8,-67.9Z" transform="translate(100 100)" />
</svg>
